<svg width="165" height="31" viewBox="0 0 165 31" fill="none" xmlns="http://www.w3.org/2000/svg">
<path d="M37.2421 0H34.0713V23.4861H37.2421V0Z" fill="#2C4F92"/>
<path d="M59.0013 4.44116V4.45109C58.8574 4.44612 58.7085 4.44116 58.5547 4.44116H59.0013Z" fill="#2C4F92"/>
<path d="M59.0013 23.4712V23.4811H58.5547C58.7036 23.4811 58.8524 23.4762 59.0013 23.4712Z" fill="#2C4F92"/>
<path d="M94.7291 13.1102C94.7291 16.5738 94.7291 20.0424 94.7341 23.506C93.6722 23.506 92.6152 23.506 91.5533 23.506V12.2666C91.5533 10.7532 90.943 9.38857 89.9456 8.40109C88.9581 7.40865 87.5836 6.79334 86.0751 6.79334C83.0531 6.79334 80.6018 9.24466 80.6018 12.2666V23.506H77.4061V12.2666C77.4061 10.7532 76.7958 9.38857 75.7984 8.40109C74.8109 7.40865 73.4363 6.79334 71.9278 6.79334C68.9059 6.79334 66.4545 9.24466 66.4545 12.2666V23.506H63.2837V4.46606H66.4545V6.42117C67.9432 5.20047 69.8487 4.46606 71.9278 4.46606C74.007 4.46606 75.9174 5.20047 77.4061 6.42117C77.6294 6.60477 77.8428 6.7983 78.0462 6.99679C78.3985 7.3491 78.7161 7.73119 79.0039 8.13809C79.1032 8.00411 79.1975 7.87013 79.2967 7.75104C79.3513 7.68653 79.4009 7.61706 79.4654 7.55751C79.5299 7.46819 79.6093 7.37887 79.6937 7.28956C79.7235 7.25482 79.7433 7.23001 79.7731 7.2052C79.8723 7.09603 79.9765 6.98686 80.0907 6.88266C80.2445 6.72883 80.4132 6.575 80.5869 6.43606C82.0805 5.20047 83.9909 4.46606 86.08 4.46606C88.1691 4.46606 90.0845 5.20543 91.5781 6.43606C91.7965 6.6147 91.9999 6.80326 92.1935 6.99679C93.7615 8.56484 94.7291 10.7184 94.7291 13.1102Z" fill="#2C4F92"/>
<path d="M104.664 20.3352H114.28V23.506H99.0265L100.952 20.3352L108.648 7.63691H99.0166V4.46606H114.285L112.36 7.63691L104.664 20.3352Z" fill="#2C4F92"/>
<path d="M143.145 13.1102V23.506H140.019V12.2666C140.019 12.0433 140.009 11.83 139.979 11.6166C139.836 10.3661 139.275 9.24466 138.436 8.40109C137.459 7.40865 136.109 6.79334 134.615 6.79334C131.856 6.79334 129.574 8.89731 129.261 11.6166C129.231 11.83 129.221 12.0433 129.221 12.2666V23.506H126.095V4.46606H129.261V6.38147C130.72 5.18062 132.586 4.46606 134.615 4.46606C136.645 4.46606 138.516 5.18062 139.984 6.38147C140.218 6.575 140.446 6.78341 140.654 6.99679C142.198 8.56484 143.15 10.7184 143.15 13.1102H143.145Z" fill="#2C4F92"/>
<path d="M164.478 4.62996H156.965C154.335 4.62996 151.958 5.69683 150.236 7.41872C148.514 9.1406 147.448 11.5175 147.448 14.1524C147.448 19.4074 151.71 23.6699 156.965 23.6699H161.749C161.719 23.9776 161.644 24.2455 161.54 24.4688C160.439 26.9251 155.61 26.682 155.308 26.6621C155.308 26.6621 155.308 29.823 155.308 29.833C155.308 30.2796 159.436 29.8131 159.848 29.7238C161.242 29.4261 162.691 28.7661 163.639 27.6694C164.15 27.0789 164.517 26.3743 164.721 25.6201C164.909 24.9204 164.885 24.2158 164.924 23.5062C164.969 22.6427 164.954 21.7744 164.964 20.9109C164.994 18.3058 165.004 15.7056 164.999 13.1004C164.989 10.2769 164.964 7.45842 164.919 4.63492L164.473 4.625L164.478 4.62996ZM161.754 20.7918H157.372C153.705 20.7918 150.732 17.8195 150.732 14.1524C150.732 12.3214 151.477 10.659 152.678 9.45818C153.879 8.25733 155.541 7.513 157.372 7.513H161.754V20.7918Z" fill="#2C4F92"/>
<path d="M163.957 4.46606V4.47599C163.813 4.47103 163.664 4.46606 163.51 4.46606H163.957Z" fill="#2C4F92"/>
<path d="M59.0013 4.45621V23.4714C58.8574 23.4763 58.7085 23.4813 58.5547 23.4813H55.8304V7.32933H51.4488C49.6178 7.32933 47.9554 8.07366 46.7546 9.27451C45.5537 10.4754 44.8094 12.1377 44.8094 13.9687C44.8094 17.6358 47.7817 20.6082 51.4488 20.6082H54.9273V23.4862H51.0419C45.7869 23.4862 41.5244 19.2237 41.5244 13.9687C41.5244 11.3338 42.5913 8.95693 44.3132 7.23504C46.0351 5.51316 48.4119 4.44629 51.0419 4.44629H58.5547C58.7035 4.44629 58.8524 4.45125 59.0013 4.45621Z" fill="#2C4F92"/>
<path d="M121.753 4.46606H118.583V23.506H121.753V4.46606Z" fill="#2C4F92"/>
<path d="M120.17 3.22048C121.047 3.22048 121.758 2.50956 121.758 1.63258C121.758 0.755606 121.047 0.0446777 120.17 0.0446777C119.293 0.0446777 118.583 0.755606 118.583 1.63258C118.583 2.50956 119.293 3.22048 120.17 3.22048Z" fill="#2C4F92"/>
<path d="M23.5307 2.95745V20.8759C23.5307 22.4291 22.2753 23.6846 20.7221 23.6846H15.8542C22.5383 19.288 22.3994 15.7302 22.3994 15.7302C22.836 9.95911 15.4473 8.31166 14.9908 8.22234C21.2729 11.681 19.3774 15.1942 19.3774 15.1942C18.2907 19.1441 11.5619 22.5184 8.97662 23.6895H3.72661C16.3951 18.5487 15.7897 13.3731 15.7897 13.3731C15.9733 9.34876 9.60185 7.8601 9.20984 7.77575C13.5319 10.0435 12.2666 13.0555 12.2666 13.0555C11.294 16.6482 2.43644 20.3748 0.0347354 21.3325C0.0049622 21.1836 0 21.0347 0 20.8759V18.3651C8.81783 14.693 9.56216 11.2542 9.56216 11.2542C10.2221 7.38869 3.27009 7.1257 3.27009 7.1257C11.3089 10.1378 2.69447 14.3953 0 15.5763V2.95745C0 1.40428 1.25544 0.153809 2.8086 0.153809H20.7271C22.2803 0.153809 23.5357 1.40924 23.5357 2.96241L23.5307 2.95745Z" fill="#2C4F92"/>
</svg>
